<svg xmlns="http://www.w3.org/2000/svg" width="340" height="595" viewBox="0 0 340 595">
  <defs>
    <style>
      .bg { fill: #ffffff; }
      .muted { font: 400 12px 'Segoe UI', Arial; fill: #63707a; }
      .grid { fill: #ffffff; stroke: #d0d7de; }
      .grid-cur { fill: #eefbfc; stroke: #21808d; }
      .grid-ans { fill: #ffffff; stroke: #6bb6c0; }
    </style>
  </defs>
  <rect class="bg" width="100%" height="100%"/>
  <rect x="12" y="16" width="316" height="18" rx="4" fill="#e5e7eb"/>
  <text class="muted" x="12" y="52">已答 12 題 · 未答 38 題</text>
  <g transform="translate(12,68)">
    <rect class="grid-cur" x="0" y="0" width="36" height="36" rx="6"/>
    <rect class="grid-ans" x="44" y="0" width="36" height="36" rx="6"/>
    <rect class="grid" x="88" y="0" width="36" height="36" rx="6"/>
    <rect class="grid" x="132" y="0" width="36" height="36" rx="6"/>
    <rect class="grid-ans" x="176" y="0" width="36" height="36" rx="6"/>
    <rect class="grid" x="220" y="0" width="36" height="36" rx="6"/>
    <rect class="grid" x="0" y="44" width="36" height="36" rx="6"/>
    <rect class="grid-ans" x="44" y="44" width="36" height="36" rx="6"/>
    <rect class="grid" x="88" y="44" width="36" height="36" rx="6"/>
    <rect class="grid" x="132" y="44" width="36" height="36" rx="6"/>
    <rect class="grid" x="176" y="44" width="36" height="36" rx="6"/>
    <rect class="grid" x="220" y="44" width="36" height="36" rx="6"/>
  </g>
</svg>
